<?xml version="1.0" encoding="UTF-8" standalone="no"?>
<svg
   version="1.1"
   viewBox="0 0 674 175"
   width="674"
   height="175"
   id="svg62"
   sodipodi:docname="process_compile.svg"
   inkscape:version="1.1.1 (3bf5ae0d25, 2021-09-20)"
   xmlns:inkscape="http://www.inkscape.org/namespaces/inkscape"
   xmlns:sodipodi="http://sodipodi.sourceforge.net/DTD/sodipodi-0.dtd"
   xmlns="http://www.w3.org/2000/svg"
   xmlns:svg="http://www.w3.org/2000/svg">
  <sodipodi:namedview
     id="namedview64"
     pagecolor="#ffffff"
     bordercolor="#666666"
     borderopacity="1.0"
     inkscape:pageshadow="2"
     inkscape:pageopacity="0.0"
     inkscape:pagecheckerboard="0"
     showgrid="false"
     inkscape:zoom="0.83753709"
     inkscape:cx="320.58282"
     inkscape:cy="141.48627"
     inkscape:window-width="1280"
     inkscape:window-height="736"
     inkscape:window-x="0"
     inkscape:window-y="0"
     inkscape:window-maximized="1"
     inkscape:current-layer="svg62" />
  <!-- svg-source:excalidraw -->
  <defs
     id="defs4">
    <style
       class="style-fonts"
       id="style2">
      @font-face {
        font-family: &quot;Virgil&quot;;
        src: url(&quot;https://excalidraw.com/Virgil.woff2&quot;);
      }
      @font-face {
        font-family: &quot;Cascadia&quot;;
        src: url(&quot;https://excalidraw.com/Cascadia.woff2&quot;);
      }
    </style>
  </defs>
  <mask
     id="mask36" />
  <g
     id="g6891">
    <g
       id="g4511">
      <g
         stroke-linecap="round"
         transform="translate(10 14) rotate(0 69.5 73.5)"
         id="g8">
        <path
           d="M32 0 M32 0 C47.17 0.36, 63.69 2.22, 107 0 M32 0 C58.09 -0.3, 86.11 0.05, 107 0 M107 0 C127.51 -0.06, 140.56 11.27, 139 32 M107 0 C128.2 1.46, 137.97 12.16, 139 32 M139 32 C136.92 56.5, 137.43 80.49, 139 115 M139 32 C139.31 65.69, 138.19 97.84, 139 115 M139 115 C140.51 136.88, 128.16 147.35, 107 147 M139 115 C138.41 135.19, 128.03 148.13, 107 147 M107 147 C86.96 147.88, 69.13 146.45, 32 147 M107 147 C80.63 147.22, 51.94 146.2, 32 147 M32 147 C11.05 145.01, -0.55 137.03, 0 115 M32 147 C11.87 145.25, -1.82 137.65, 0 115 M0 115 C2.35 92.71, -0.19 73.04, 0 32 M0 115 C1.29 84.88, 0.49 54.13, 0 32 M0 32 C-1.61 8.74, 9.31 0.19, 32 0 M0 32 C-0.46 12.67, 11 -2.15, 32 0"
           stroke="#000000"
           stroke-width="1"
           fill="none"
           id="path6" />
      </g>
      <g
         transform="translate(40.5 69.5) rotate(0 39 18)"
         id="g12">
        <text
           x="39"
           y="25"
           font-family="Virgil, 'Segoe UI Emoji'"
           font-size="28px"
           fill="#000000"
           text-anchor="middle"
           style="white-space:pre;font-size:28px;font-family:Virgil, 'Segoe UI Emoji';direction:ltr;text-anchor:middle;fill:#000000"
           direction="ltr"
           id="text10"><tspan
             style="font-style:normal;font-variant:normal;font-weight:normal;font-stretch:normal;font-size:28px;font-family:'JetBrains Mono';-inkscape-font-specification:'JetBrains Mono, Normal';font-variant-ligatures:normal;font-variant-caps:normal;font-variant-numeric:normal;font-variant-east-asian:normal"
             id="tspan316">main.c</tspan></text>
      </g>
    </g>
    <g
       id="g6857">
      <g
         stroke-linecap="round"
         transform="matrix(1.2870581,0,0,1,226.81714,9.516337)"
         id="g16">
        <path
           d="m 98.75,19.5 m 0,0 c 8.78,9.11 14.72,15.77 37.5,39 m -37.5,-39 c 10.33,11.36 21.91,21.44 37.5,39 m 0,0 c 21.07,18.1 20.64,19.34 0,39 m 0,-39 c 18.68,19.48 21.77,21.54 0,39 m 0,0 c -11.89,12.52 -21.71,23.51 -37.5,38 m 37.5,-38 c -8.35,10.6 -17.88,19.57 -37.5,38 m 0,0 c -18.71,21.34 -21.09,19.21 -39.5,0 m 39.5,0 c -21.37,20.45 -18.8,20.02 -39.5,0 m 0,0 c -11.42,-8.64 -20.33,-20.79 -39.5,-38 m 39.5,38 C 43.5,120.39 28.68,104.3 19.75,97.5 m 0,0 c -18.7,-17.75 -19,-18.44 0,-39 m 0,39 c -21.1,-18.96 -17.87,-20.06 0,-39 m 0,0 c 10.53,-6.9 17.7,-16.41 39.5,-39 m -39.5,39 c 15.1,-13.66 29.45,-28.59 39.5,-39 m 0,0 c 18.92,-17.56 18.53,-20.16 39.5,0 m -39.5,0 c 19.7,-20.13 19.33,-17.4 39.5,0"
           stroke="#000000"
           stroke-width="1"
           fill="none"
           id="path14" />
      </g>
      <g
         transform="translate(258,69.016337)"
         id="g20">
        <text
           x="69"
           y="25"
           font-family="Virgil, 'Segoe UI Emoji'"
           font-size="28px"
           fill="#000000"
           text-anchor="middle"
           style="font-size:28px;font-family:Virgil, 'Segoe UI Emoji';direction:ltr;text-anchor:middle;white-space:pre;fill:#000000"
           direction="ltr"
           id="text18"><tspan
             style="font-style:normal;font-variant:normal;font-weight:normal;font-stretch:normal;font-size:24px;font-family:'JetBrains Mono';-inkscape-font-specification:'JetBrains Mono, Normal';font-variant-ligatures:normal;font-variant-caps:normal;font-variant-numeric:normal;font-variant-east-asian:normal"
             id="tspan1674">compilador</tspan></text>
      </g>
    </g>
    <g
       stroke-linecap="round"
       id="g34"
       transform="matrix(0.86720459,0,0,1,19.803932,-1.30736)">
      <g
         transform="translate(150.13115,85.866175)"
         id="g24">
        <path
           d="M 0.3,-0.24 C 16.04,0.28 79.46,2.61 95.25,3.4 M -1,-1.42 c 15.5,0.67 79.4,5.46 95.24,6.11"
           stroke="#000000"
           stroke-width="1"
           fill="none"
           id="path22" />
      </g>
      <g
         transform="translate(150.13115,85.866175)"
         id="g28">
        <path
           d="M 65.07,13.05 C 75.34,9.4 87.82,5 94.15,4.75 M 65.37,13.41 C 75.79,9.38 87.46,7.71 94.11,4.53"
           stroke="#000000"
           stroke-width="1"
           fill="none"
           id="path26" />
      </g>
      <g
         transform="translate(150.13115,85.866175)"
         id="g32">
        <path
           d="m 66.3,-7.44 c 9.85,3.95 21.87,7.14 27.85,12.19 M 66.6,-7.07 c 9.99,3.68 21.19,9.72 27.51,11.6"
           stroke="#000000"
           stroke-width="1"
           fill="none"
           id="path30" />
      </g>
    </g>
    <g
       id="g4525"
       transform="translate(0,0.44097183)">
      <g
         stroke-linecap="round"
         transform="translate(507,14.5)"
         id="g40">
        <path
           d="m 59.05,1.72 c 10.33,-3.7 25.35,-2.89 36.53,-0.79 11.19,2.09 21.55,6.71 30.57,13.35 9.02,6.64 18.51,17.05 23.56,26.5 5.04,9.44 6.77,19.81 6.7,30.17 -0.07,10.36 -2.29,22.34 -7.1,31.99 -4.8,9.65 -13.03,19.22 -21.73,25.94 -8.7,6.72 -19.64,11.68 -30.49,14.37 -10.85,2.7 -23.56,3.77 -34.63,1.8 C 51.39,143.07 39.65,138.12 30.69,131.42 21.72,124.72 13.65,114.47 8.67,104.86 3.7,95.25 1.09,84.15 0.84,73.78 0.58,63.41 2.35,52.3 7.14,42.65 11.93,33 19.65,22.92 29.61,15.87 39.57,8.82 59.32,2.63 66.91,0.35 c 7.58,-2.28 8.11,0.41 8.21,1.84 M 43.27,8.55 c 9.14,-5.72 21.46,-8.11 32.66,-8.31 11.19,-0.2 24.37,3.03 34.5,7.09 10.14,4.05 18.87,9.62 26.31,17.21 7.44,7.59 15.33,17.99 18.33,28.33 3,10.34 2.1,23.24 -0.34,33.72 -2.45,10.49 -7.86,20.64 -14.33,29.17 -6.48,8.52 -14.82,17.15 -24.51,21.98 -9.68,4.83 -22.21,6.46 -33.6,6.99 C 70.91,145.26 58.3,145.02 47.6,140.89 36.9,136.77 25.75,128.4 18.09,119.99 10.43,111.58 4.27,100.79 1.65,90.45 -0.97,80.11 0.05,68.26 2.38,57.95 4.72,47.64 9.09,36.75 15.64,28.56 22.19,20.38 37.14,12 41.67,8.83 46.19,5.67 41.93,8.42 42.81,9.57"
           stroke="#000000"
           stroke-width="1"
           fill="none"
           id="path38" />
      </g>
      <g
         transform="translate(523.5,69.5)"
         id="g44">
        <text
           x="62"
           y="25"
           font-family="Virgil, 'Segoe UI Emoji'"
           font-size="28px"
           fill="#000000"
           text-anchor="middle"
           style="font-size:28px;font-family:Virgil, 'Segoe UI Emoji';direction:ltr;text-anchor:middle;white-space:pre;fill:#000000"
           direction="ltr"
           id="text42"><tspan
             style="font-style:normal;font-variant:normal;font-weight:normal;font-stretch:normal;font-size:28px;font-family:'JetBrains Mono';-inkscape-font-specification:'JetBrains Mono, Normal';font-variant-ligatures:normal;font-variant-caps:normal;font-variant-numeric:normal;font-variant-east-asian:normal"
             id="tspan2654">programa</tspan></text>
      </g>
    </g>
    <g
       stroke-linecap="round"
       id="g58"
       transform="matrix(1.0884817,0,0,1,-17.345436,1.205411)">
      <g
         transform="translate(408.55909,86.453404)"
         id="g48">
        <path
           d="M 0.25,0.58 C 12.68,1.01 61.79,1.98 73.9,2.26 M -1.08,-0.16 c 12.38,0.08 62.13,-0.21 74.3,0.43"
           stroke="#000000"
           stroke-width="1"
           fill="none"
           id="path46" />
      </g>
      <g
         transform="translate(408.55909,86.453404)"
         id="g52">
        <path
           d="M 45.8,10.82 C 52.19,6.77 59.06,6.92 71.7,-0.36 M 44.19,9.47 C 54.71,7.09 66.48,2.19 74.02,-0.19"
           stroke="#000000"
           stroke-width="1"
           fill="none"
           id="path50" />
      </g>
      <g
         transform="translate(408.55909,86.453404)"
         id="g56">
        <path
           d="m 46.19,-9.7 c 6.24,0.95 13.01,6.09 25.51,9.34 M 44.57,-11.05 c 10.56,5.47 22.18,8.41 29.45,10.86"
           stroke="#000000"
           stroke-width="1"
           fill="none"
           id="path54" />
      </g>
    </g>
  </g>
  <mask
     id="mask60" />
</svg>
